inDegrees=no
num_controls=7
num_derivatives=13
num_iterations=119
num_multipliers=7
num_parameters=0
num_slacks=7
num_states=26
objective=0.452902
objective_accelerations=0.047835
objective_balance=0.001037
objective_effort=0.037282
objective_height=0.361114
objective_ligament=0.005634
solver_duration=1339.204386
status=Solve_Succeeded
success=true
DataType=double
version=3
OpenSimVersion=4.5
endheader
time	/jointset/ground_pelvis/pelvis_tilt/value	/jointset/ground_pelvis/pelvis_tx/value	/jointset/ground_pelvis/pelvis_ty/value	/jointset/hip_r/hip_flexion_r/value	/jointset/hip_r/hip_adduction_r/value	/jointset/hip_r/hip_rotation_r/value	/jointset/back/lumbar_extension/value	/jointset/patellofemoral_r/patellar_flexion_r/value	/jointset/knee_r/knee_flexion_r/value	/jointset/knee_r/knee_adduction_r/value	/jointset/knee_r/knee_rotation_r/value	/jointset/ankle_r/ankle_angle_r/value	/jointset/subtalar_r/subtalar_angle_r/value	/jointset/ground_pelvis/pelvis_tilt/speed	/jointset/ground_pelvis/pelvis_tx/speed	/jointset/ground_pelvis/pelvis_ty/speed	/jointset/hip_r/hip_flexion_r/speed	/jointset/hip_r/hip_adduction_r/speed	/jointset/hip_r/hip_rotation_r/speed	/jointset/back/lumbar_extension/speed	/jointset/patellofemoral_r/patellar_flexion_r/speed	/jointset/knee_r/knee_flexion_r/speed	/jointset/knee_r/knee_adduction_r/speed	/jointset/knee_r/knee_rotation_r/speed	/jointset/ankle_r/ankle_angle_r/speed	/jointset/subtalar_r/subtalar_angle_r/speed	/forceset/tau_hip_flexion_r	/forceset/tau_hip_adduction_r	/forceset/tau_hip_rotation_r	/forceset/tau_knee_flexion_r	/forceset/tau_ankle_angle_r	/forceset/tau_subtalar_angle_r	/forceset/tau_lumbar_extension	lambda_cid13_p0	lambda_cid14_p0	lambda_cid14_p1	lambda_cid14_p2	lambda_cid14_p3	lambda_cid14_p4	lambda_cid14_p5	/jointset/ground_pelvis/pelvis_tilt/accel	/jointset/ground_pelvis/pelvis_tx/accel	/jointset/ground_pelvis/pelvis_ty/accel	/jointset/hip_r/hip_flexion_r/accel	/jointset/hip_r/hip_adduction_r/accel	/jointset/hip_r/hip_rotation_r/accel	/jointset/back/lumbar_extension/accel	/jointset/patellofemoral_r/patellar_flexion_r/accel	/jointset/knee_r/knee_flexion_r/accel	/jointset/knee_r/knee_adduction_r/accel	/jointset/knee_r/knee_rotation_r/accel	/jointset/ankle_r/ankle_angle_r/accel	/jointset/subtalar_r/subtalar_angle_r/accel	gamma_cid13_p0	gamma_cid14_p0	gamma_cid14_p1	gamma_cid14_p2	gamma_cid14_p3	gamma_cid14_p4	gamma_cid14_p5
0.5	-0.1303143509242642	0.02346068471361997	0.8065144893080989	0.8884368463926444	-0.2188912391493902	-0.1349609238086457	-0.6486742792901535	0.9578122417578041	0.9578122417578063	-0.06679107227602715	0.1745279411642871	0.2948649174735799	0.145111131124271	-0.3482429626359782	-0.2047118768772909	-0.5033491319194139	1.856386819840123	-0.03388477654488188	0.1896849349759926	-0.7351704281542631	1.937388951059412	1.937388951059396	-0.418945638940931	-0.0001446189669356845	0.5302030184016256	0.1618613097331547	-0.1935317404340632	0.008402407349613091	0.01700762227843702	-0.2948660674555538	0.008846356920465389	0.0008193747276640927	0.2385813439838093	-8.416338567366033	-39.73270275008286	-5.849507556787075	0.4960582500258512	-4.30454459698984	-641.7153538858955	62.68948312737664	0.3445692596079648	0.6006025709655536	-0.4168923012616585	-1.280011107259986	-0.2039934637486999	-0.5709806643346809	1.847573728556923	-1.356859073714121	-1.356859073714121	0.4521089489978087	0.02998638792301921	-0.5781689447394223	-0.3845585024133527	-8.553397727377705e-08	1.84175354923225e-08	1.309267384922972e-06	-1.615312981850351e-07	-1.44918768833014e-07	-1.564855116219497e-07	9.235699795499335e-07
0.51	-0.1337788524139315	0.02144379499842885	0.8014613255556134	0.9069339036663955	-0.2192403985632847	-0.1330934733755416	-0.6559330213722818	0.9771153046891364	0.9771153046891368	-0.07095780764133885	0.1745289419775639	0.3001370702759397	0.1467098160260222	-0.3446031496934167	-0.1986466854108954	-0.5071690896028691	1.842773827573205	-0.03592165002228413	0.1839227072051793	-0.7164981716181968	1.922968320456685	1.922968320456665	-0.4143094868834302	0.0002481930246334818	0.524153462574987	0.1578666573721947	-0.1996088461872771	0.008959223924526539	0.01741304251634881	-0.3002874586179858	0.008518678555251366	0.001283675123141007	0.2443690537841325	-7.467869072350743	-40.14488015990876	-5.887558327654077	0.6934796938548853	-4.39496001635014	-646.6986090036459	63.25136887932006	0.3818288148323883	0.6123394232469327	-0.3473922957198523	-1.439549678252238	-0.199553516699835	-0.5612914072801288	1.889024114105449	-1.522949939785232	-1.522949939785806	0.4833897784437675	0.02958118050034239	-0.6295109083890406	-0.407947891233426	-5.892370289623474e-08	1.005824028256504e-07	1.692401704279646e-06	5.025117536007671e-07	-2.270686024933544e-07	-1.154091282611471e-07	1.179585144423184e-06
0.52	-0.1372053274735228	0.01948812959565573	0.7963733932675271	0.9252873097391084	-0.2196091305573453	-0.1312801347349112	-0.6630026463894547	0.996266504337193	0.9962665043371955	-0.07507537719721157	0.1745310014259036	0.3053464951186804	0.1482683485465046	-0.3406376766207684	-0.1924670143936882	-0.5103028390396238	1.827656579632507	-0.03779929257824177	0.1788625764813451	-0.6973470151631711	1.907016294404628	1.907016294404605	-0.409112477053227	6.710804526367231e-05	0.5176574264778302	0.1538308334793893	-0.2056859519404914	0.009516040499440961	0.01781846275429723	-0.3057088497804141	0.008191000190037129	0.001747975518616938	0.2501567635844552	-6.578867232445983	-40.55436630953177	-5.91744109169119	0.8808097388021856	-4.51540995320949	-651.6627961272695	63.83955921115657	0.4097012856253438	0.6234984811279071	-0.2796506519215746	-1.580862242016061	-0.1721472794597855	-0.430561254938895	1.943353712348806	-1.663138163579955	-1.663138163579955	0.5642805035382932	-0.08479300626475374	-0.6674649988430451	-0.3927928087824668	-5.345299610916237e-08	1.083552506288802e-07	1.675654406805592e-06	5.608107018796464e-07	-2.299980567486335e-07	-1.047188992921689e-07	1.181534058794345e-06
0.53	-0.1405905520008104	0.0175947263805765	0.7912575789863299	0.9434821749017219	-0.2199960330721806	-0.1295152312722129	-0.6698784602049201	1.015250549332712	1.015250549332722	-0.07913879176207143	0.1745296967465048	0.3104886931315806	0.1497860183567092	-0.3363536604644027	-0.1862045298925215	-0.5127424705686136	1.811074640938108	-0.0395798615822943	0.1741109014942015	-0.6777475077454582	1.889536281507925	1.88953628150791	-0.4035236099029066	-0.0002915377652258224	0.5107019408950322	0.1496549387521576	-0.2118472568644005	0.01046261053935572	0.0180949901792942	-0.310852996847224	0.007288996567091393	0.001987569704700448	0.2559348586267248	-5.749895709432651	-41.17982893428798	-6.092817254103653	1.102856240981798	-4.362616427909627	-656.7130984626464	64.09601518196679	0.4458027012171946	0.6289419367009454	-0.2085072294767214	-1.733114338096112	-0.1806363181065702	-0.4986203646846145	1.978485284143909	-1.828886215434719	-1.828886215433523	0.5634349907322516	-0.005757647323055935	-0.7216734123632454	-0.4368850391605547	-4.626526169069363e-08	1.157961031134672e-07	1.63639655433226e-06	6.023055542094796e-07	-2.308196332400588e-07	-9.503089090166705e-08	1.179898387639645e-06
0.54	-0.1439313261824198	0.01576421171092688	0.7861208908246249	0.9615039697464026	-0.2204006661985032	-0.1277980745081962	-0.6765562317406761	1.034052103526717	1.034052103526741	-0.08314486862144012	0.174525934153238	0.315558919673779	0.151260549772748	-0.3317476074850363	-0.1798893053077653	-0.5144776151411655	1.793042516045934	-0.04134541487549851	0.1693132367437559	-0.6577385592212893	1.870518134102453	1.870518134102446	-0.3976449359544541	-0.0004244747309951431	0.5032631323376315	0.1452031546462442	-0.2180085617883061	0.01140918057929442	0.0183715176043567	-0.3159971439140285	0.006386992944151192	0.002227163890822802	0.2617129536689956	-4.981076476140418	-41.80358175272187	-6.261793830064288	1.316915394316318	-4.237049780927264	-661.7530302361046	64.37188990207987	0.4741086502255132	0.6340464978457978	-0.1387532606340125	-1.87089948157111	-0.1691441372901338	-0.4397592075993113	2.025241933640033	-1.970765065333674	-1.970765065333674	0.6222418631647259	-0.03965123732067825	-0.7641295937635918	-0.4479706845188426	-3.717783712685013e-08	1.228696416284919e-07	1.572233406966109e-06	6.25208640808453e-07	-2.293090896523269e-07	-8.645172230011788e-08	1.174296792073355e-06
